<?xml version="1.0" standalone="no"?><svg xmlns="http://www.w3.org/2000/svg" viewBox="0 0 1440 320"><path fill="#01bcc2" fill-opacity="1" d="M0,288L18.5,272C36.9,256,74,224,111,218.7C147.7,213,185,235,222,213.3C258.5,192,295,128,332,117.3C369.2,107,406,149,443,154.7C480,160,517,128,554,96C590.8,64,628,32,665,48C701.5,64,738,128,775,160C812.3,192,849,192,886,213.3C923.1,235,960,277,997,272C1033.8,267,1071,213,1108,160C1144.6,107,1182,53,1218,42.7C1255.4,32,1292,64,1329,74.7C1366.2,85,1403,75,1422,69.3L1440,64L1440,320L1421.5,320C1403.1,320,1366,320,1329,320C1292.3,320,1255,320,1218,320C1181.5,320,1145,320,1108,320C1070.8,320,1034,320,997,320C960,320,923,320,886,320C849.2,320,812,320,775,320C738.5,320,702,320,665,320C627.7,320,591,320,554,320C516.9,320,480,320,443,320C406.2,320,369,320,332,320C295.4,320,258,320,222,320C184.6,320,148,320,111,320C73.8,320,37,320,18,320L0,320Z"></path></svg>