<?xml version="1.0" standalone="no"?><svg xmlns="http://www.w3.org/2000/svg" viewBox="0 0 1440 320"><path fill="#e7345f" fill-opacity="1" d="M0,32L18.5,26.7C36.9,21,74,11,111,26.7C147.7,43,185,85,222,85.3C258.5,85,295,43,332,32C369.2,21,406,43,443,74.7C480,107,517,149,554,165.3C590.8,181,628,171,665,144C701.5,117,738,75,775,53.3C812.3,32,849,32,886,53.3C923.1,75,960,117,997,128C1033.8,139,1071,117,1108,128C1144.6,139,1182,181,1218,186.7C1255.4,192,1292,160,1329,165.3C1366.2,171,1403,213,1422,234.7L1440,256L1440,320L1421.5,320C1403.1,320,1366,320,1329,320C1292.3,320,1255,320,1218,320C1181.5,320,1145,320,1108,320C1070.8,320,1034,320,997,320C960,320,923,320,886,320C849.2,320,812,320,775,320C738.5,320,702,320,665,320C627.7,320,591,320,554,320C516.9,320,480,320,443,320C406.2,320,369,320,332,320C295.4,320,258,320,222,320C184.6,320,148,320,111,320C73.8,320,37,320,18,320L0,320Z"></path></svg>