<?xml version="1.0" standalone="no"?><svg xmlns="http://www.w3.org/2000/svg" viewBox="0 0 1440 320"><path fill="#e7345f" fill-opacity="1" d="M0,256L18.5,261.3C36.9,267,74,277,111,288C147.7,299,185,309,222,298.7C258.5,288,295,256,332,218.7C369.2,181,406,139,443,112C480,85,517,75,554,85.3C590.8,96,628,128,665,149.3C701.5,171,738,181,775,186.7C812.3,192,849,192,886,181.3C923.1,171,960,149,997,117.3C1033.8,85,1071,43,1108,21.3C1144.6,0,1182,0,1218,10.7C1255.4,21,1292,43,1329,74.7C1366.2,107,1403,149,1422,170.7L1440,192L1440,320L1421.5,320C1403.1,320,1366,320,1329,320C1292.3,320,1255,320,1218,320C1181.5,320,1145,320,1108,320C1070.8,320,1034,320,997,320C960,320,923,320,886,320C849.2,320,812,320,775,320C738.5,320,702,320,665,320C627.7,320,591,320,554,320C516.9,320,480,320,443,320C406.2,320,369,320,332,320C295.4,320,258,320,222,320C184.6,320,148,320,111,320C73.8,320,37,320,18,320L0,320Z"></path></svg>